<?xml version="1.0" encoding="UTF-8"?>
<svg xmlns="http://www.w3.org/2000/svg" width="1200" height="800" viewBox="0 0 1200 800" preserveAspectRatio="xMidYMid slice">
  <defs>
    <linearGradient id="g1" x1="0" x2="1">
      <stop offset="0" stop-color="#f7e7c6"/>
      <stop offset="1" stop-color="#f3d9a6"/>
    </linearGradient>
  </defs>
  <rect width="1200" height="800" fill="transparent"/>
  <!-- stylized noodle squiggles -->
  <g stroke="#e6b46a" stroke-width="18" stroke-linecap="round" fill="none" opacity="0.95">
    <path d="M80 160 C240 90, 360 250, 520 180 S820 100, 980 180"/>
    <path d="M60 240 C200 180, 340 320, 500 260 S760 220, 940 260"/>
    <path d="M40 320 C220 280, 380 420, 560 360 S820 320, 1040 360"/>
    <path d="M120 420 C260 360, 420 520, 580 440 S800 380, 980 440"/>
  </g>
  <!-- chopsticks -->
  <g stroke="#a56b3b" stroke-width="6" stroke-linecap="round" opacity="0.9">
    <path d="M760 80 L940 20"/>
    <path d="M820 98 L1000 38"/>
  </g>
</svg>